<svg xmlns="http://www.w3.org/2000/svg" aria-hidden="true" fill="currentColor" width="135" height="765" viewBox="0 0 135 765">
  <path id="katakana-profile" d="m 484.995 251.2 # M 484.995 251.2 # 1
l 11.2 0
q 4.7 0 7.2 -0.35 # D 1.277742149261733 
a 11.856 11.856 0 0 0 1.255 -0.24 # D 2.15578871877557 
q 1.258 -0.318 1.972 -0.871 # D 0.36283605113053735 
a 2.866 2.866 0 0 0 0.273 -0.239 # D 3.10161248385417 
q 1 -1.1 1.1 -2.9 # D 0.4251176307800028 
a 2.782 2.782 0 0 1 0.334 -0.263 # D 1.673954897839247 
q 0.905 -0.598 1.666 0.163
q 1.252 2.593 0.944 6.346 # D 0.9088740286750377 
a 20.643 20.643 0 0 1 -0.094 0.904
a 16 16 0 0 1 -3.011 7.468 # D 0.7290027434790576 
a 19.196 19.196 0 0 1 -0.439 0.582 # D 1.4468538281388117 
a 5.027 5.027 0 0 1 -1.069 0.975 # D 1.4041317601991814 
a 4.189 4.189 0 0 1 -1.281 0.575 # D 2.3040418832998686 
q -1.167 0.303 -2.297 -0.18 # D 0.3918022460374688 
a 4.332 4.332 0 0 1 -0.353 -0.17
q -2.014 -1.208 -6.43 -1.443 # D 2.270715525996156 
a 42.85 42.85 0 0 0 -2.27 -0.057
l -8.1 0
q 0.3 2.6 1.1 5.1 # D 4.281674555591538 
q 0.736 2.301 1.896 3.839 # D 0.33126575434231526 
a 9.099 9.099 0 0 0 0.204 0.261
q 1.4 1.8 0.2 5.2 # D 1.6936035545546324 
a 34.757 34.757 0 0 1 -0.602 1.583 # D 1.683354389307234 
q -0.297 0.732 -0.659 1.549 # D 1.890514480240779 
a 75.643 75.643 0 0 1 -0.789 1.718 # D 3.937986541368572 
q -0.961 2.028 -1.947 3.423 # D 1.3036633000893958 
a 12.618 12.618 0 0 1 -0.803 1.027 # D 3.113278015211624 
q -1.2 1.5 -2.7 1.55 # D 2.6100766272276292 
q -1.5 0.05 -2.45 -0.9 # D 1.831069905820116 
a 2.439 2.439 0 0 1 -0.719 -1.684 # D 0.8687444963854304 
q -0.018 -0.406 0.069 -0.866 # D 0.9359882477894791 
a 17.199 17.199 0 0 0 0.143 -0.925 # D 2.636072836626508 
q 0.139 -1.058 0.252 -2.624 # D 1.6543355161513784 
a 99.747 99.747 0 0 0 0.105 -1.651
q 0.2 -3.6 0.3 -7.7 # D 3.791266806754666 
a 90.363 90.363 0 0 0 0.098 -3.79 # D 0.5600035714171853 
a 99.997 99.997 0 0 0 0.002 -0.56 # D 4.550000000000011 
l 0 -4.55 # D 0.20000000000000284 
l -0.2 0
q -11.3 0 -19.55 -2.45
a 54.444 54.444 0 0 1 -7.528 -2.824
a 40.878 40.878 0 0 1 -6.522 -3.776
a 45.981 45.981 0 0 1 -7.077 -6.203 # D 4.096796065219765 
a 40.343 40.343 0 0 1 -2.623 -3.147
a 67.531 67.531 0 0 1 -6.258 -10.014 # D 0.7665246245229298 
a 62.329 62.329 0 0 1 -0.342 -0.686 # D 2.166370236132325 
q 0.492 -1.576 1.858 -1.114 # D 0.04427188724236198 
a 2.58 2.58 0 0 1 0.042 0.014
q 4.6 6.7 11.1 11.1
a 42.81 42.81 0 0 0 8.617 4.449
a 55.904 55.904 0 0 0 6.933 2.151
q 7.777 1.891 17.955 2.156 # D 3.3952851132121395 
a 130.038 130.038 0 0 0 3.395 0.044 # D 3.450362299817212 
q 0 -1.7 -0.05 -3.45 # D 3.45325932996639 
q -0.05 -1.75 -0.15 -3.45 # D 4.906373406091311 
q -0.1 -2.5 -0.25 -4.9 # D 4.513590588434003 
q -0.15 -2.4 -0.35 -4.5
a 929.151 929.151 0 0 0 -7.192 0.388 # D 1.0598150782094005 
a 1017.521 1017.521 0 0 0 -1.058 0.062 # D 3.794222581768233 
a 588.7 588.7 0 0 0 -3.787 0.234 # D 3.3720594597367395 
q -1.779 0.117 -3.364 0.233 # D 0.4502110616144359 
a 346.018 346.018 0 0 0 -0.449 0.033 # D 4.52925799662594 
q -3.085 0.23 -4.517 0.333 # D 0.23361934851377028 
a 433.771 433.771 0 0 1 -0.233 0.017 # D 0.23107790893982222 
a 4.164 4.164 0 0 1 -0.231 0.006 # D 2.4449116548456225 
q -1.237 0 -2.328 -0.747 # D 0.9591464955886615 
a 5.707 5.707 0 0 1 -0.741 -0.609 # D 1.7680554289953758 
a 5.525 5.525 0 0 1 -1.072 -1.406 # D 2.014427958503345 
a 4.671 4.671 0 0 1 -0.528 -1.944 # D 2.4852446559644905 
a 4.043 4.043 0 0 1 0.779 -2.36 # D 1.507796405354502 
q 0.403 -0.575 1.015 -1.115 # D 0.27029798371428015 
a 8.371 8.371 0 0 1 0.206 -0.175
q 2 -1.65 4.7 -1.85
q 2.214 -0.096 6.93 -0.193 # D 0.37006621029216247 
a 898.725 898.725 0 0 1 0.37 -0.007
q 5 -0.1 10.5 -0.3 # D 4.37378554572582 
q -0.4 -2.4 -0.8 -4.3 # D 2.8147500777155985 
a 48.958 48.958 0 0 0 -0.657 -2.737 # D 0.8965589774242407 
a 42.666 42.666 0 0 0 -0.243 -0.863 # D 4.743416490252569 
q -0.7 -2.5 -1.5 -4.5 # D 2.372088742016197 
a 11.386 11.386 0 0 1 -0.658 -2.279 # D 1.627207731053423 
a 9.454 9.454 0 0 1 -0.142 -1.621 # D 3.3708307581366124 
q 0 -1.5 1.2 -3.15 # D 3.0285762331498476 
a 14.53 14.53 0 0 1 2.035 -2.243 # D 1.2579642284262194 
a 17.354 17.354 0 0 1 0.965 -0.807 # D 3.1487384775493803 
a 15.265 15.265 0 0 1 2.665 -1.677 # D 1.1836190265452875 
a 13.513 13.513 0 0 1 1.085 -0.473 # D 2.443431398668683 
q 1.271 -0.489 2.394 -0.489 # D 1.16432684414644 
a 4.746 4.746 0 0 1 1.156 0.139 # D 1.7499188552615776 
q 1.084 0.723 0.454 1.69 # D 0.2604150533283422 
a 2.4 2.4 0 0 1 -0.154 0.21 # D 4.697073557013984 
q -1.7 1.2 -2 4.25 # D 1.4751071147547254 
a 33.369 33.369 0 0 0 -0.11 1.471
q -0.145 2.704 0.01 6.579 # D 3.1292970456637934 
q 0.076 1.225 0.182 3.124 # D 1.2278843593759137 
a 1025.836 1025.836 0 0 1 0.068 1.226 # D 2.747153071818164 
a 2010.899 2010.899 0 0 0 0.151 2.743 # D 3.049853930928484 
q 0.081 1.442 0.172 3.045 # D 0.4627882885294485 
a 3340.126 3340.126 0 0 0 0.027 0.462
q 3 -0.1 5.45 -0.2 # D 3.892639721320223 
q 2.328 -0.095 3.888 -0.19 # D 0.16230834852218634 
a 100.824 100.824 0 0 0 0.162 -0.01 # D 1.351802500367566 
a 30.444 30.444 0 0 0 1.349 -0.087 # D 2.362436454171834 
q 1.377 -0.121 2.335 -0.359 # D 0.016492422502475287 
a 8.975 8.975 0 0 0 0.016 -0.004 # D 2.581181899828058 
q 1.4 -0.35 2.2 -1.35 # D 1.2747548783982017 
q 0.3 -0.4 0.55 -1.15 # D 1.6444832014952153 
q 0.232 -0.697 0.335 -1.61 # D 0.1408012784033018 
a 11.317 11.317 0 0 0 0.015 -0.14 # D 0.40328773846968485 
a 2.715 2.715 0 0 1 0.304 -0.265 # D 1.5598131298331877 
q 0.839 -0.62 1.556 0.109 # D 0.20960916010516487 
a 2.297 2.297 0 0 1 0.14 0.156
q 1.1 2.6 0.85 6.5
q -0.219 3.405 -2.457 7.115 # D 1.2874292213554952 
a 25.512 25.512 0 0 1 -0.693 1.085 # D 1.1407896388028824 
a 4.394 4.394 0 0 1 -0.701 0.9 # D 1.8551822012945234 
a 3.074 3.074 0 0 1 -1.649 0.85 # D 0.65821728935056 
a 4.436 4.436 0 0 1 -0.655 0.065 # D 0.09100549433962701 
q -0.046 0.001 -0.091 0.001 # D 1.9726814238492811 
a 3.715 3.715 0 0 1 -1.904 -0.516 # D 1.7907665956232266 
a 7.003 7.003 0 0 0 -1.637 -0.726 # D 1.5473024914346851 
a 9.593 9.593 0 0 0 -1.513 -0.324 # D 3.6667424234598185 
q -1.85 -0.25 -3.65 -0.35 # D 1.3794854113037969 
q -0.597 -0.085 -1.376 -0.098 # D 0.2740072991728515 
a 17.022 17.022 0 0 0 -0.274 -0.002 # D 2.0500000000000007 
l -2.05 0
q 0.2 4.3 0.45 8.55
q 0.25 4.25 0.45 7.95 # D 0 
z
m -45.4 285.4 # D 0.5045096629401794 M 439.595 536.6 # 2
a 9.871 9.871 0 0 0 -0.333 0.379
q -3.367 4.035 -3.367 12.621
q 0 3.7 0.2 7.85 # D 2.0557346618666497 
a 286.653 286.653 0 0 0 0.106 2.053
a 252.16 252.16 0 0 0 0.394 5.897 # D 2.309849562201012 
a 121.662 121.662 0 0 0 0.202 2.301 # D 4.029888956286537 
q 0.226 2.3 0.498 3.999 # D 4.0627372546104334 
q 0.44 2.423 1.397 3.815 # D 2.4766174512831283 
a 4.194 4.194 0 0 0 1.903 1.585 # D 0.683059294644313 
a 5.228 5.228 0 0 0 0.649 0.213 # D 2.769457889190587 
q 1.488 0.38 2.749 -0.336 # D 1.2679641162114605 
a 4.719 4.719 0 0 0 1.002 -0.777 # D 2.7802877548915976 
q 0.8 -0.9 1.7 -2.2 # D 2.067551692219619 
q 0.534 -0.772 1.033 -1.791 # D 1.6498393861220864 
a 22.03 22.03 0 0 0 0.667 -1.509 # D 1.0709458436354917 
a 7.591 7.591 0 0 0 0.307 -1.026 # D 3.288362054275655 
q 0.396 -1.79 -0.307 -3.274 # D 0.12390722335680404 
a 17.604 17.604 0 0 1 -0.053 -0.112
q -1.172 -2.484 -2.247 -6.738 # D 0.2988042837711322 
a 29.644 29.644 0 0 1 -0.072 -0.29 # D 4.750641430375427 
q -0.53 -2.187 -0.787 -4.685 # D 4.980833865930506 
a 48.699 48.699 0 0 1 -0.241 -4.975
q 0 -6.745 4.422 -8.435 # D 3.326335671576145 
a 9.498 9.498 0 0 1 3.278 -0.565
q 2.975 -0.044 5.825 -0.04
a 310.692 310.692 0 0 1 7.125 0.09
q 6.15 0.15 11.25 0.35
q 1.2 4.9 2.2 9
q 1 4.1 1.4 7.2 # D 0.04440720662233194 
a 5.556 5.556 0 0 1 0.006 0.044 # D 1.2960015432089407 
q 0.109 0.809 -0.072 1.294 # D 0.6399999999999529 
a 1.048 1.048 0 0 1 -0.384 0.512 # D 1.8506755523321778 
q -0.65 0.45 -1.85 0.05 # D 0.07528612089889154 
a 18.878 18.878 0 0 1 -0.072 -0.022 # D 2.7246131835546654 
q -1.077 -0.342 -2.554 -0.949 # D 1.6025969549453272 
a 66.111 66.111 0 0 1 -1.474 -0.629
q -2.5 -1.1 -4.9 -2.2 # D 3.142805275546031 
q -1.65 -0.756 -2.828 -1.371 # D 1.106627760360269 
a 29.215 29.215 0 0 1 -0.972 -0.529 # D 1.8575857988259892 
q -1.401 0 -1.319 1.308 # D 0.19293781381575448 
a 2.752 2.752 0 0 0 0.019 0.192 # D 0.9520084033242632 
a 77.678 77.678 0 0 0 0.568 0.764 # D 2.6537673221290707 
q 0.682 0.906 1.616 2.105 # D 1.5647737855677335 
a 284.886 284.886 0 0 0 0.966 1.231 # D 2.106003323834023 
a 153.007 153.007 0 0 0 1.315 1.645 # D 4.891651050514535 
a 180.06 180.06 0 0 0 3.135 3.755 # D 2.2072754698949772 
a 366.98 366.98 0 0 0 1.441 1.672 # D 4.170906975706875 
q 1.521 1.753 2.759 3.128 # D 3.7316216314090203 
q 1.3 1.4 2.15 3.05 # D 1.6434415109762557 
a 8.199 8.199 0 0 1 0.6 1.53 # D 2.2474207438751024 
a 9.871 9.871 0 0 1 0.35 2.22 # D 0.6988225812035679 
a 3.886 3.886 0 0 0 0.128 0.687 # D 1.5318593277452333 
q 0.234 0.813 0.823 1.292 # D 1.1712565901628709 
a 2.848 2.848 0 0 0 1.049 0.521 # D 0.23162469643799544 
a 3.508 3.508 0 0 0 0.225 0.055 # D 3.098330195443981 
q 1.657 0.344 2.875 -1.155 # D 0.6525273940609548 
a 41.086 41.086 0 0 0 0.424 -0.496 # D 3.047947670154503 
q 0.924 -1.097 1.889 -2.392 # D 3.2629760955299045 
a 71.97 71.97 0 0 0 1.887 -2.662 # D 1.0852769231860215 
a 136.029 136.029 0 0 0 0.605 -0.901 # D 3.0361824714598047 
q 0.886 -1.333 1.648 -2.55 # D 2.8016084665777288 
a 77.628 77.628 0 0 0 1.447 -2.399 # D 0.3367877669987231 
a 5.871 5.871 0 0 0 0.155 -0.299 # D 4.260542923149582 
q 1.205 -2.496 -1.155 -4.101 # D 1.635496866398703 
a 17.321 17.321 0 0 1 -1.319 -0.967 # D 3.624699987585223 
q -1.648 -1.34 -2.381 -2.733 # D 3.621290515824462 
q -0.688 -1.306 -1.328 -3.369 # D 2.1100106634801143 
a 42.965 42.965 0 0 1 -0.572 -2.031 # D 3.0362590469194273 
q -0.375 -1.312 -0.77 -2.937 # D 2.11810504933064 
a 119.986 119.986 0 0 1 -0.48 -2.063
q -0.65 -2.9 -1.45 -6.2 # D 4.5135905884340035 
q 2.4 0.2 4.5 0.35 # D 3.7272644124075818 
q 2.1 0.15 3.7 0.45 # D 0.640932133692796 
a 45.093 45.093 0 0 1 0.635 0.087 # D 1.7870221039483543 
q 0.934 0.136 1.762 0.298 # D 1.6440298050826208 
a 25.22 25.22 0 0 1 1.603 0.365 # D 0.1098954048174889 
a 12.034 12.034 0 0 1 0.106 0.029 # D 3.2724726125668444 
a 10.77 10.77 0 0 1 2.994 1.321 # D 0.2660545056938279 
a 4.059 4.059 0 0 0 0.231 0.132 # D 1.7886153862695124 
q 0.841 0.445 1.744 0.397 # D 0.7856627775324492 
a 3.634 3.634 0 0 0 0.775 -0.129 # D 0.24005207768315784 
a 3.52 3.52 0 0 0 0.229 -0.072 # D 1.7191931246954146 
q 0.793 -0.278 1.444 -0.933 # D 1.2624397015303388 
a 5.655 5.655 0 0 0 0.777 -0.995
q 2.3 -3.9 2.9 -8.2 # D 1.5620604981882078 
a 24.655 24.655 0 0 0 0.168 -1.553
q 0.244 -3.234 -0.568 -5.347 # D 1.0511898020814516 
q -0.4 -0.4 -0.95 -0.45 # D 0.12214745187681826 
a 1.343 1.343 0 0 0 -0.122 -0.006 # D 0.5631527323914847 
q -0.282 0 -0.55 0.121 # D 0.4450943720156507 
a 1.765 1.765 0 0 0 -0.378 0.235 # D 0.0496487663492041 
a 7.941 7.941 0 0 1 -0.008 0.049 # D 3.396272221127198 
q -0.307 1.964 -1.492 3.051 # D 1.7327723451163626 
q -0.55 0.55 -1.502 0.864 # D 0.976933979345583 
a 7.079 7.079 0 0 1 -0.948 0.236 # D 0.8184479213731346 
a 15.434 15.434 0 0 1 -0.809 0.124 # D 1.5139418747098485 
q -0.704 0.09 -1.508 0.134 # D 1.633540020936128 
a 29.965 29.965 0 0 1 -1.633 0.042
q -3 0 -6.85 0.05
q -3.85 0.05 -8.15 0.05
q -1 -4.6 -1.85 -8.85 # D 2.574417409823046 
a 1643.948 1643.948 0 0 0 -0.507 -2.524 # D 4.721135986179576 
q -0.531 -2.632 -0.943 -4.626
q -0.871 -4.961 -0.718 -7.46 # D 0.6933426281428228 
a 8.59 8.59 0 0 1 0.068 -0.69 # D 4.767074574621232 
q 0.35 -2.45 1.95 -4.35 # D 0.4419049671592081 
a 1.373 1.373 0 0 0 0.072 -0.436 # D 0.39839302202724886 
q 0 -0.197 -0.059 -0.394 # D 0.40431299756500816 
a 1.716 1.716 0 0 0 -0.163 -0.37 # D 0.0036055512754536155 
a 1.697 1.697 0 0 0 -0.002 -0.003 # D 1.2586155092004896 
q -0.35 -0.597 -1.048 -0.697 # D 4.49444101084883 
q -2.2 0.4 -4.2 1.6 # D 1.536060220173673 
a 11.79 11.79 0 0 0 -1.259 0.88 # D 2.008309239136253 
q -0.73 0.579 -1.495 1.341 # D 2.2823577721295365 
a 27.693 27.693 0 0 0 -1.546 1.679 # D 1.654001209189403 
a 11.361 11.361 0 0 0 -0.994 1.322 # D 1.9283982991072761 
a 8.487 8.487 0 0 0 -0.856 1.728 # D 1.2373600931014805 
a 10.325 10.325 0 0 0 -0.346 1.188 # D 1.773769996363678 
a 8.028 8.028 0 0 0 -0.204 1.762 # D 0.0611310068622335 
a 5.86 5.86 0 0 0 0.004 0.061 # D 3.641035155007508 
q 0.115 1.671 1.196 3.439 # D 1.0364000192975915 
a 34.343 34.343 0 0 1 0.526 0.893 # D 1.9442247812431093 
q 0.448 0.786 0.927 1.709 # D 2.1211348377696546 
a 71.79 71.79 0 0 1 0.947 1.898 # D 0.6417670917085309 
a 47.611 47.611 0 0 1 0.283 0.576 # D 2.0864213380810517 
q 0.428 0.886 0.873 1.895 # D 2.4206563159605463 
a 84.56 84.56 0 0 1 0.944 2.229 # D 0.8361877779542501 
a 53.144 53.144 0 0 1 0.309 0.777
q 0.945 2.429 1.891 5.523
q -5.5 0.1 -10.6 0.15
q -5.1 0.05 -8.85 0.1 # D 1.2701007834026428 
a 1265.744 1265.744 0 0 1 -1.27 0.016 # D 3.8801489662125115 
q -2.731 0.034 -3.88 0.034 # D 4.155823023180843 
a 18.84 18.84 0 0 0 -4.119 0.552
a 12.6 12.6 0 0 0 -6.281 3.648 # D 0 
z
m 6.223 -528.847 # D 2.090248310608097 M 445.818 7.753 # 3
a 5.391 5.391 0 0 0 -0.423 2.047 # D 1.0189504404042413 
a 11.904 11.904 0 0 0 0.044 1.018 # D 2.523541162731452 
a 13.619 13.619 0 0 0 0.456 2.482 # D 4.808326112068523 
q 0.5 1.8 1.4 4.6 # D 1.3726474419893855 
a 30.996 30.996 0 0 1 0.38 1.319
q 0.878 3.297 1.62 8.531
q 0.9 6.35 1.5 13.95
q 0.5 7.4 0.55 14.95 # D 1.6600075301034065 
a 250.666 250.666 0 0 1 0.005 1.66
q 0 3.284 -0.089 6.281
a 159.766 159.766 0 0 1 -0.266 5.709 # D 2.7225107896939575 
a 189.358 189.358 0 0 1 -0.239 2.712 # D 4.262999530846795 
a 157.067 157.067 0 0 1 -0.461 4.238
q -0.4 3.25 -0.9 5.35 # D 0.6352652989106261 
a 7.722 7.722 0 0 0 -0.089 0.629 # D 1.5517654461934611 
q -0.085 0.87 0.074 1.55 # D 1.3001792184156815 
a 2.818 2.818 0 0 0 0.565 1.171 # D 1.500133327407934 
a 3.22 3.22 0 0 0 1.188 0.916 # D 1.3423859355639858 
a 3.495 3.495 0 0 0 1.312 0.284 # D 1.9522730341834924 
q 0.996 0.032 1.889 -0.493 # D 1.2233437783386907 
a 4.834 4.834 0 0 0 0.961 -0.757 # D 2.5793729858242758 
a 13.738 13.738 0 0 0 1.693 -1.946 # D 2.811061187523314 
a 18.171 18.171 0 0 0 1.457 -2.404
q 1.35 -2.65 2.05 -5.25 # D 0.49466150042226226 
a 14.629 14.629 0 0 0 0.131 -0.477 # D 3.4140130345386708 
q 0.502 -1.944 0.274 -3.403 # D 1.6016944152989931 
a 4.601 4.601 0 0 0 -0.505 -1.52 # D 0.48877397639400894 
a 17.087 17.087 0 0 1 -0.186 -0.452 # D 2.2793753530298484 
q -0.395 -0.998 -0.716 -2.164 # D 2.446172520489919 
a 30.039 30.039 0 0 1 -0.548 -2.384 # D 0.6415738461003536 
a 51.98 51.98 0 0 1 -0.116 -0.631
q -0.487 -2.754 -0.934 -6.869 # D 1.2776310108947742 
a 227.287 227.287 0 0 1 -0.13 -1.271 # D 3.3941185895604744 
q -0.148 -1.488 -0.32 -3.379
q -0.25 -2.75 -0.45 -5.95
q 3.2 -0.1 6.75 0.05 # D 2.179695850342432 
a 46.032 46.032 0 0 1 2.175 0.143 # D 4.522971810657237 
a 38.66 38.66 0 0 1 4.475 0.657 # D 1.4979188896599163 
a 21.717 21.717 0 0 1 1.455 0.356 # D 3.7550047936054622 
q 2.09 0.591 3.445 1.494 # D 0.5373360214986495 
a 7.472 7.472 0 0 0 0.453 0.289 # D 2.631374165716465 
q 1.347 0.79 2.547 0.661 # D 1.4038507755456051 
a 2.938 2.938 0 0 0 1.326 -0.461 # D 1.246674376090243 
a 3.116 3.116 0 0 0 0.874 -0.889 # D 4.319600097231225 
q 1.189 -1.606 2.096 -3.777 # D 3.4068379767755306 
a 27.698 27.698 0 0 0 1.104 -3.223
q 0.3 4.4 0.4 8.85
q 0.1 4.45 0 8.05
q -0.1 2.6 -0.2 5.1 # D 1.4857944003125152 
a 81.426 81.426 0 0 1 -0.073 1.484 # D 1.3321118571651491 
q -0.041 0.704 -0.091 1.329 # D 1.3936516781463013 
a 38.869 38.869 0 0 1 -0.136 1.387 # D 4.234678264047937 
q -0.3 3.4 1.65 3.9 # D 3.084259392463609 
q 1.507 0.386 2.984 -0.78 # D 1.192625674719445 
a 7.169 7.169 0 0 0 0.866 -0.82 # D 0.8756631772548149 
a 10.501 10.501 0 0 0 0.565 -0.669 # D 1.6118790277188897 
q 0.462 -0.592 0.915 -1.327 # D 1.7809592920670614 
a 22.199 22.199 0 0 0 0.87 -1.554 # D 4.911720676097123 
q 1.15 -2.25 1.85 -4.55 # D 2.009975124224178 
q 0.2 -1 0.2 -2 # D 0.8802505325190096 
a 4.084 4.084 0 0 0 -0.096 -0.875 # D 1.19534137383427 
a 4.816 4.816 0 0 0 -0.404 -1.125 # D 3.4212570789111982 
q -0.9 -1.5 -1.55 -3.05 # D 3.7020264720825584 
q -0.65 -1.55 -1.05 -3.55 # D 4.325190631636944 
q -0.3 -1.8 -0.657 -4.275 # D 1.7420315726185918 
a 352.35 352.35 0 0 1 -0.243 -1.725
q -0.5 -3.6 -0.9 -7.6 # D 1.9904765760992964 
a 450.803 450.803 0 0 1 -0.194 -1.981
a 400.398 400.398 0 0 1 -0.506 -5.719 # D 2.221361969603333 
a 203.936 203.936 0 0 1 -0.168 -2.215 # D 4.191425652448104 
q -0.164 -2.329 -0.232 -4.185
q -0.072 -3.306 0.14 -5.605 # D 1.658350083667498 
a 21.906 21.906 0 0 1 0.21 -1.645 # D 4.767074574621212 
q 0.45 -2.65 1.95 -4.35 # D 0.10123734488813863 
a 2.317 2.317 0 0 0 0.04 -0.093 # D 1.9988619261970033 
q 0.502 -1.225 -1.04 -1.707 # D 1.7414275752956256 
a 14.908 14.908 0 0 0 -1.669 0.497
a 15.998 15.998 0 0 0 -4.631 2.653 # D 2.731874814115758 
q -1.178 0.955 -1.878 1.984 # D 3.3268663934699885 
a 5.543 5.543 0 0 0 -1.022 3.166 # D 0.8748256969248205 
a 10.631 10.631 0 0 0 0.038 0.874 # D 2.6087391590574946 
q 0.093 1.125 0.412 2.576 # D 4.183897704294406 
q 0.45 2.05 1.05 4.05 # D 1.3588307473706933 
a 40.33 40.33 0 0 1 0.361 1.31 # D 2.4012748697306607 
a 48.046 48.046 0 0 1 0.539 2.34 # D 4.226405091800831 
q 0.4 1.95 0.8 4.15 # D 1.2445079348883272 
a 3.235 3.235 0 0 1 -0.88 0.88 # D 1.0331021246711263 
a 4.306 4.306 0 0 1 -0.92 0.47 # D 0.6255909206502275 
a 16.678 16.678 0 0 1 -0.59 0.208 # D 2.3975537533077365 
q -1.009 0.336 -2.31 0.642 # D 3.3711036768393807 
q -1.222 0.288 -3.348 0.394 # D 1.802869934299199 
a 50.796 50.796 0 0 1 -1.802 0.056 # D 0.5820420946976266 
a 150.857 150.857 0 0 1 -0.582 0.007
q -3.231 0.035 -7.218 -0.057
q -4.35 -0.1 -8.85 -0.3
q -0.4 -6.9 -0.8 -13.45 # D 1.3554825708949578 
a 1830.687 1830.687 0 0 1 -0.082 -1.353
q -0.339 -5.619 -0.518 -9.197
q -0.2 -4.6 0.2 -7.3
q 0.4 -2.7 2.2 -4.6 # D 0.15384407690905805 
a 1.681 1.681 0 0 0 0.042 -0.148 # D 0.9625320773875543 
q 0.12 -0.514 -0.142 -0.952 # D 0.5751730174477923 
a 1.53 1.53 0 0 0 -0.382 -0.43 # D 0.5841438179078854 
a 1.75 1.75 0 0 0 -0.518 -0.27
q -2.9 0.8 -5.4 2.35 # D 2.166987078872415 
a 16.95 16.95 0 0 0 -1.768 1.253 # D 3.2028164168431554 
a 13.11 13.11 0 0 0 -2.232 2.297 # D 2.1432540680003376 
q -0.703 0.938 -1.077 1.853 # D 0 
z
m -14.465 100.628 # D 0.4920619879649262 M 431.353 108.381 # 4
a 2.546 2.546 0 0 0 -0.258 0.419
q 3.8 12.4 10.55 24.1
q 6.75 11.7 16.45 21.25
q 9.7 9.55 22.1 15.65 # D 3.1149383621509954 
q 1.543 0.691 2.675 1.596 # D 3.9389644578239196 
a 8.062 8.062 0 0 1 2.425 3.104 # D 0.3937765864040195 
a 4.906 4.906 0 0 0 0.164 0.358 # D 2.8205425010093252 
a 3.5 3.5 0 0 0 2.136 1.842 # D 2.4052010310990615 
q 1.238 0.387 2.356 -0.484 # D 0.8911745059190231 
a 4.693 4.693 0 0 0 0.644 -0.616 # D 0.1308166656049543 
a 13.116 13.116 0 0 0 0.092 -0.093 # D 2.236658221543914 
q 0.653 -0.667 1.472 -1.684 # D 1.360229760003809 
a 45.784 45.784 0 0 0 0.836 -1.073 # D 4.540099117860758 
q 1.4 -1.85 2.7 -3.65 # D 0.4207006061321864 
a 58.627 58.627 0 0 0 0.245 -0.342 # D 2.1774925947061354 
q 0.73 -1.027 1.215 -1.807 # D 0.8704027803264465 
a 15.677 15.677 0 0 0 0.44 -0.751 # D 0.19535864454892687 
a 5.243 5.243 0 0 0 0.098 -0.169 # D 3.9924885723067627 
q 1.228 -2.197 -0.698 -3.931 # D 0.0968762096698583 
a 6.717 6.717 0 0 1 -0.068 -0.069 # D 1.534280613186524 
q -0.509 -0.523 -0.951 -1.204 # D 1.5150214519933365 
a 10.995 10.995 0 0 1 -0.731 -1.327 # D 3.622499137335996 
q -0.75 -1.6 -1.25 -3.4 # D 3.463428359299493 
q -0.313 -1.5 -0.606 -3.41 # D 2.4641298667075135 
a 109.868 109.868 0 0 1 -0.344 -2.44
q -0.45 -3.45 -0.45 -6.45 # D 1.314362583155799 
q 0.625 0.375 1.093 0.73 # D 0.6583684378826122 
a 7.086 7.086 0 0 1 0.507 0.42 # D 0.47955187414920225 
a 13.034 13.034 0 0 1 0.347 0.331 # D 0.7050453886098359 
q 0.234 0.231 0.492 0.505 # D 0.8316952566896154 
a 28.971 28.971 0 0 1 0.561 0.614 # D 0.11844407963254477 
a 4.02 4.02 0 0 0 0.077 0.09 # D 4.907611435311478 
q 1.708 1.931 4.889 0.427 # D 1.2909860572446121 
a 12.242 12.242 0 0 0 1.134 -0.617 # D 2.5487753922227183 
a 9.555 9.555 0 0 0 1.984 -1.6 # D 2.469970850030412 
a 12.64 12.64 0 0 0 1.516 -1.95
q 1.5 -2.35 2.3 -5 # D 4.900255095400641 
q 0.8 -2.65 0.7 -4.85 # D 0.6709515630803841 
a 1.11 1.11 0 0 0 -0.424 -0.52 # D 0.41686448637417217 
a 1.557 1.557 0 0 0 -0.376 -0.18 # D 0.1548063306199076 
a 1.681 1.681 0 0 0 -0.149 -0.042 # D 0.961543030758378 
q -0.514 -0.12 -0.951 0.142 # D 0.2142171795164707 
a 7.376 7.376 0 0 1 -0.095 0.192 # D 1.310206090659034 
q -0.327 0.635 -0.724 1.092 # D 2.517323380100378 
a 3.199 3.199 0 0 1 -2.231 1.166 # D 0.059135437767889605 
a 5.699 5.699 0 0 1 -0.059 0.004
q -1.944 0.13 -5.391 -0.954
q -4.4 -1.2 -9.55 -3.75 # D 0.3595608432518894 
a 95.36 95.36 0 0 1 -0.322 -0.16
a 103.327 103.327 0 0 1 -9.928 -5.69 # D 1.8876697274682361 
a 109.943 109.943 0 0 1 -1.576 -1.039
a 98.343 98.343 0 0 1 -7.874 -5.861
q -4.35 -3.6 -7.15 -7 # D 1.623352395507521 
q -1.113 -0.159 -1.468 0.693 # D 0.5239017083385056 
a 2.088 2.088 0 0 0 -0.132 0.507
a 66.922 66.922 0 0 0 3.215 4.964
a 91.765 91.765 0 0 0 3.935 5.136
q 4.35 5.3 9.65 10.3
q 5.3 5 10.8 8.7 # D 4.804164859785737 
q -0.1 2.1 0.2 4.8
q 0.3 2.7 0.6 5.3 # D 0.9024023492877414 
a 87.022 87.022 0 0 1 0.143 0.891 # D 2.58378211155662 
a 75.722 75.722 0 0 1 0.357 2.559 # D 0.9218850253692127 
a 65.285 65.285 0 0 1 0.104 0.916 # D 2.2425815481270774 
a 56.213 56.213 0 0 1 0.196 2.234 # D 0.02402082429892944 
a 6.039 6.039 0 0 1 0.001 0.024 # D 3.4014668894463655 
q 0.087 2.971 -2.901 1.776
q -9 -3.4 -17.2 -9.15
q -8.2 -5.75 -15.15 -12.85 # D 3.6950694174805356 
a 128.782 128.782 0 0 1 -2.547 -2.677
a 113.428 113.428 0 0 1 -9.653 -11.923
a 110.33 110.33 0 0 1 -4.472 -6.899
a 83.484 83.484 0 0 1 -3.978 -7.501 # D 1.7645183478785418 
q -1.077 -0.58 -1.742 0.281 # D 0 
z
m 15.942 273.269 # D 0.20400980368600707 M 447.295 381.65 # 5
a 10.615 10.615 0 0 0 0.002 0.204 # D 2.692456127776288 
q 0.029 1.521 0.498 2.646 # D 0.6732109624775815 
a 4.982 4.982 0 0 0 0.267 0.618 # D 1.9932920006863262 
a 3.773 3.773 0 0 0 1.333 1.482 # D 0.32207452553717575 
a 5.875 5.875 0 0 0 0.276 0.166 # D 2.1209743044176537 
a 4.931 4.931 0 0 0 2.024 0.634 # D 3.4341760292681562 
q 1.74 0.112 3.402 -0.469 # D 2.8746938967479485 
a 10.442 10.442 0 0 0 2.548 -1.331 # D 2.4916093192954727 
a 11.337 11.337 0 0 0 1.881 -1.634 # D 3.539734029556484 
a 7.834 7.834 0 0 0 1.769 -3.066
a 80.136 80.136 0 0 1 2.066 -6.152
a 100.304 100.304 0 0 1 3.584 -8.248
q 3.65 -7.5 8.4 -14.3
q 4.75 -6.8 10.15 -11.6
q 3.103 -2.521 3.103 -6.171 # D 0.22901964981196074 
a 8.712 8.712 0 0 0 -0.003 -0.229 # D 4.0243912583147186 
a 7.512 7.512 0 0 0 -1.05 -3.885 # D 2.885953048821116 
a 9.407 9.407 0 0 0 -1.85 -2.215 # D 2.9559499319169853 
q -1.058 -0.907 -2.218 -1.954 # D 3.239805549720557 
a 160.005 160.005 0 0 1 -2.382 -2.196
q -2.5 -2.35 -4.8 -4.85
q -2.3 -2.5 -3.85 -4.8 # D 4.366062299143245 
q -1.55 -2.3 -1.75 -4 # D 0.40547872940511825 
a 25.781 25.781 0 0 1 -0.053 -0.402 # D 3.310392272828127 
q -0.234 -1.922 -0.096 -3.309 # D 0.9507481264772707 
a 7.567 7.567 0 0 1 0.149 -0.939 # D 0.30123080851729633 
a 6.037 6.037 0 0 1 0.074 -0.292 # D 3.647908990092831 
q 0.451 -1.6 1.826 -3.158 # D 2.01246117974982 
q 0.5 -1.3 -0.9 -1.8 # D 2.5216098032804464 
a 19.301 19.301 0 0 0 -2.454 0.58 # D 3.9311850630566756 
a 23.44 23.44 0 0 0 -3.646 1.47 # D 2.5071412006506626 
a 20.081 20.081 0 0 0 -2.171 1.254 # D 3.8482537598240474 
a 15.747 15.747 0 0 0 -2.929 2.496 # D 0.750622408405213 
a 11.464 11.464 0 0 0 -0.455 0.597
a 8.969 8.969 0 0 0 -1.745 5.303
q 0 2.523 2.423 4.882 # D 2.554692349383771 
a 16.251 16.251 0 0 0 1.977 1.618
q 2.1 1.4 5.15 3.55
q 3.05 2.15 6.25 4.6 # D 4.241525786789474 
q 1.8 1.378 3.315 2.646 # D 2.898178910971508 
a 66.939 66.939 0 0 1 2.185 1.904 # D 4.805478644214344 
q 2.562 2.477 0.82 4.735 # D 1.050535577693577 
a 5.768 5.768 0 0 1 -0.72 0.765
q -1.75 1.563 -3.793 3.574 # D 3.629603972887377 
a 168.412 168.412 0 0 0 -2.557 2.576
q -3.55 3.65 -7.4 8.05
q -3.85 4.4 -7.4 9.1 # D 2.9103197418840385 
a 115.807 115.807 0 0 0 -1.725 2.344
a 100.456 100.456 0 0 0 -4.575 6.956
q -1.461 2.444 -2.569 4.69 # D 4.1643560126386925 
a 45.81 45.81 0 0 0 -1.681 3.81 # D 0.6467804882647754 
a 17.584 17.584 0 0 0 -0.194 0.617 # D 1.6455980675730109 
q -0.246 0.84 -0.372 1.603 # D 1.5358567641547556 
a 9.368 9.368 0 0 0 -0.134 1.53 # D 0 
z
m -0.806 65.504 # D 1.477481641171886 M 446.489 447.154 # 6
a 22.505 22.505 0 0 0 -0.794 1.246 # D 0.15029637387511785 
a 6.705 6.705 0 0 0 -0.07 0.133 # D 2.376844336510078 
q -0.625 1.226 -0.53 2.317 # D 2.4622144504490078 
q 0.1 1.15 1.2 2.15 # D 0.3323883271115067 
a 10.6 10.6 0 0 1 0.231 0.239 # D 3.364203471848904 
q 0.948 1.009 2.048 2.669 # D 2.1137419426221142 
a 42.754 42.754 0 0 1 1.121 1.792 # D 4.385280948810482 
a 55.023 55.023 0 0 0 2.408 3.665
a 68.259 68.259 0 0 0 4.292 5.385
q 4 4.55 8.8 8.6
q 4.8 4.05 9.8 7.35 # D 4.378460916806262 
a 74.524 74.524 0 0 0 3.722 2.306
a 60.856 60.856 0 0 0 6.078 3.094 # D 0.5189999999999994 
a 2.197 2.197 0 0 0 0.495 -0.156 # D 1.88110632341718 
q 0.949 -0.441 0.705 -1.744 # D 3.313843840617697 
a 52.224 52.224 0 0 1 -2.675 -1.956
a 61.646 61.646 0 0 1 -5.375 -4.744
q -3.95 -3.9 -7.4 -8.25 # D 2.9096010035742164 
a 93.236 93.236 0 0 1 -1.773 -2.307
a 80.189 80.189 0 0 1 -4.277 -6.343 # D 1.389848912652041 
a 72.158 72.158 0 0 1 -0.708 -1.196
q -2.089 -3.61 -3.292 -6.704 # D 0.023409399821429613 
a 10.058 10.058 0 0 1 -0.008 -0.022 # D 2.445495450823818 
q -0.59 -1.584 -0.292 -2.428 # D 1.5021068537224656 
q 0.234 -0.665 1.265 -0.81 # D 0.6362585952268143 
a 4.585 4.585 0 0 1 0.635 -0.04
q 4.25 0 7.816 0.039 # D 4.034461178397927 
a 457.26 457.26 0 0 1 4.034 0.061 # D 0.9602520502451433 
a 138.717 138.717 0 0 1 0.96 0.022
q 4.362 0.117 6.89 0.478 # D 4.69985574246699 
q 2.69 0.384 4.56 1.138 # D 2.0763053725307574 
a 9.686 9.686 0 0 1 1.84 0.962 # D 0.22300672635594296 
a 3.675 3.675 0 0 0 0.184 0.126 # D 1.7144427666154396 
q 0.775 0.494 1.645 0.483 # D 0.5740400682879208 
a 3.23 3.23 0 0 0 0.571 -0.059 # D 1.3705141371033027 
a 3.838 3.838 0 0 0 1.278 -0.495 # D 1.332482270050874 
a 4.648 4.648 0 0 0 1.022 -0.855 # D 0.705822923968899 
a 15.486 15.486 0 0 0 0.465 -0.531
a 13.154 13.154 0 0 0 2.585 -4.769 # D 1.5699331195946136 
a 19.211 19.211 0 0 0 0.381 -1.523 # D 4.039615080672896 
q 0.429 -2.081 0.319 -4.027 # D 0.8195028981034855 
a 18.795 18.795 0 0 0 -0.064 -0.817 # D 1.9203504888430993 
q -0.102 -1.017 -0.311 -1.895 # D 1.8306471533313016 
a 9.91 9.91 0 0 0 -0.575 -1.738 # D 0.2096091601051872 
a 2.297 2.297 0 0 0 -0.14 -0.156 # D 1.5598131298331857 
q -0.717 -0.729 -1.556 -0.109 # D 0.4032877384696835 
a 2.715 2.715 0 0 0 -0.304 0.265 # D 0.7563385485349706 
a 4.724 4.724 0 0 1 -0.112 0.748 # D 1.7405884062580848 
a 3.502 3.502 0 0 1 -0.788 1.552 # D 0.37147409061736103 
a 8.109 8.109 0 0 1 -0.253 0.272 # D 0.8702488149948813 
q -0.324 0.332 -0.647 0.582 # D 0.8300096384982661 
a 4.271 4.271 0 0 1 -0.7 0.446 # D 3.981205847478866 
q -1.6 0.7 -3.9 0.8 # D 0.7824321056807425 
a 43.57 43.57 0 0 1 -0.782 0.026 # D 4.672001712328454 
q -1.776 0.045 -4.672 0.004 # D 1.7462577129393042 
a 280.357 280.357 0 0 1 -1.746 -0.03
q -4.7 0 -9.2 -0.15
q -2.813 -0.094 -5.157 -0.227 # D 2.648655885538928 
a 139.811 139.811 0 0 1 -2.643 -0.173 # D 4.732071428032334 
q -3.3 -0.25 -4.7 -0.55 # D 0.45579052206030357 
a 23.274 23.274 0 0 1 -0.444 -0.103 # D 1.3030521862151134 
a 20.179 20.179 0 0 1 -1.256 -0.347 # D 0.970819241671697 
q -0.525 -0.164 -0.921 -0.307 # D 0.4050802389650804 
a 11.696 11.696 0 0 1 -0.379 -0.143 # D 0.2898827349118799 
a 3.248 3.248 0 0 0 -0.256 -0.136 # D 2.607868861733663 
q -1.249 -0.592 -2.604 0.142 # D 0.889739287656763 
a 5.192 5.192 0 0 0 -0.74 0.494 # D 0.6381230288902046 
a 12.379 12.379 0 0 0 -0.476 0.425 # D 4.070724874024309 
q -1.158 1.088 -2.724 3.025 # D 3.5068008212614283 
q -1.247 1.542 -2.106 2.804 # D 0 
z
m -8.147 -47.901 # D 0.600181639172699 M 438.342 399.253 # 7
a 2.66 2.66 0 0 0 -0.247 0.547
q 3.7 7.4 8.8 13.4
q 5.1 6 12.4 10.4 # D 0.008602325267038273 
a 51.768 51.768 0 0 0 0.007 0.005
q 3.875 2.334 8.567 4.134
a 74.352 74.352 0 0 0 8.926 2.761 # D 3.131293662370238 
q 2 0.5 2.95 1.05 # D 1.1587734895137953 
a 10.098 10.098 0 0 1 0.966 0.64 # D 1.2745022557845895 
a 13.72 13.72 0 0 1 0.984 0.81 # D 2.3717082451262845 
q 1.1 0.9 2.25 0.75 # D 2.2147234590350147 
q 1.15 -0.15 1.95 -1.05 # D 0.41523487329463055 
a 22.942 22.942 0 0 0 0.274 -0.312 # D 3.7410995709817616 
q 1.302 -1.51 2.165 -3.051 # D 4.703582677066504 
a 13.009 13.009 0 0 0 1.561 -4.437 # D 4.801524861957872 
q 0.408 -2.725 0.121 -4.8 # D 1.8485781022180374 
a 9.463 9.463 0 0 0 -0.421 -1.8 # D 0.20681634364819912 
a 2.364 2.364 0 0 0 -0.122 -0.167 # D 1.5981529964305643 
q -0.662 -0.826 -1.578 -0.253 # D 0.3720215047547822 
a 2.751 2.751 0 0 0 -0.3 0.22 # D 1.691023654476741 
q -0.197 0.984 -0.6 1.581 # D 1.331638464448977 
a 1.983 1.983 0 0 1 -1.05 0.819 # D 3.9512656200260694 
q -1.25 0.4 -3.95 0.1
q -14.6 -1.9 -25.2 -7.8
a 61.973 61.973 0 0 1 -7.051 -4.551
a 47.974 47.974 0 0 1 -9.749 -9.649 # D 0.1745966780898355 
a 2.405 2.405 0 0 0 -0.172 -0.03 # D 1.6309046569312302 
q -0.98 -0.137 -1.481 0.683 # D 0 
z
m 42.771 -23.244 # D 1.15594333771168 M 481.113 376.009 # 8
a 3.421 3.421 0 0 0 0.382 1.091 # D 2.2012769021638046 
q 0.597 0.93 1.702 1.396 # D 1.2972355221778473 
a 5.639 5.639 0 0 0 1.248 0.354 # D 0.7466625743935464 
a 4.413 4.413 0 0 0 0.744 0.063 # D 3.8376040702500798 
q 1.719 0 3.606 -1.313 # D 0.8554092587761739 
a 7.378 7.378 0 0 0 0.706 -0.483 # D 2.263451567849426 
q 0.849 -0.653 1.598 -1.603 # D 2.1727889911356053 
a 13.51 13.51 0 0 0 1.196 -1.814
q 1.5 -2.7 2.35 -5.95 # D 2.4435359624936748 
a 28.076 28.076 0 0 0 0.518 -2.388 # D 3.776621241268444 
a 22.401 22.401 0 0 0 0.332 -3.762 # D 1.798957753811936 
q -0.444 -1.241 -1.595 -0.832 # D 0.33233868267176053 
a 2.743 2.743 0 0 0 -0.305 0.132
q -1.8 3.5 -4.7 6.55 # D 0.5247666147917471 
a 40.156 40.156 0 0 1 -0.364 0.378
a 36.27 36.27 0 0 1 -5.836 4.872 # D 0.18064883060790737 
a 5.702 5.702 0 0 0 -0.147 0.105 # D 1.0099034607327353 
q -0.437 0.323 -0.743 0.684 # D 1.467760539052639 
a 2.932 2.932 0 0 0 -0.66 1.311 # D 1.2094234163435102 
q -0.129 0.618 -0.032 1.209 # D 0 
z
m 12.682 4.591 # M 493.795 380.6 # 9
q 2.6 -2.9 4.45 -6.4
q 1.85 -3.5 2.65 -7.4 # D 0.3877692612882049 
a 2.258 2.258 0 0 1 0.331 -0.202 # D 1.7167309049469532 
q 0.906 -0.445 1.669 0.402 # D 3.1367221744999885 
a 22.953 22.953 0 0 1 0.485 3.099 # D 2.653493169390126 
a 29.515 29.515 0 0 1 0.115 2.651
q 0 3.15 -0.55 6.15
q -0.55 3 -1.95 4.8 # D 1.7959743873451965 
a 7.1 7.1 0 0 1 -1.22 1.318 # D 2.8632715554065102 
a 4.925 4.925 0 0 1 -2.63 1.132 # D 0.5075785653472789 
a 7.641 7.641 0 0 1 -0.506 0.04 # D 2.9800060402623285 
q -1.872 0.083 -2.844 -0.89 # D 1.5623575135032444 
a 2.985 2.985 0 0 1 -0.769 -1.36 # D 0.8007877371688658 
a 4.214 4.214 0 0 1 -0.131 -0.79 # D 0.24416592718884023 
a 3.305 3.305 0 0 1 -0.009 -0.244 # D 1.747126211811836 
q 0 -0.873 0.469 -1.683 # D 0.7627116099811182 
a 4.521 4.521 0 0 1 0.44 -0.623 # D 0 
z" />
</svg>