<svg xmlns="http://www.w3.org/2000/svg" aria-hidden="true" fill="currentColor" width="135" height="765" viewBox="0 0 135 765">
  <path id="katakana-profile" d="M 98.901 48.301 L 92.101 54.101 L 74.601 32.401 L 57.301 53.901 L 50.901 48.301 L 69.401 26.801 L 51.601 6.201 L 58.601 0.101 L 74.701 20.901 L 90.501 0.501 L 97.201 6.201 L 79.901 26.401 L 98.901 48.301 Z M 45.601 30.901 L 9.201 30.901 A 24.088 24.088 0 0 0 10.34 35.926 Q 11.676 39.738 14.301 42.301 Q 18.501 46.401 25.401 46.401 Q 29.901 46.401 33.501 45.451 Q 37.101 44.501 40.401 43.001 L 42.501 50.701 A 40.77 40.77 0 0 1 38.166 52.326 A 51.863 51.863 0 0 1 34.401 53.351 A 38.914 38.914 0 0 1 29.309 54.17 A 52.025 52.025 0 0 1 24.301 54.401 A 28.318 28.318 0 0 1 16.554 53.395 A 21.108 21.108 0 0 1 6.551 47.251 A 23.521 23.521 0 0 1 1.345 37.711 Q 0.001 33.046 0.001 27.201 A 35.359 35.359 0 0 1 0.833 19.379 A 28.84 28.84 0 0 1 2.951 13.251 A 24.642 24.642 0 0 1 7.967 6.169 A 22.887 22.887 0 0 1 11.201 3.551 A 21.048 21.048 0 0 1 21.46 0.079 A 26.205 26.205 0 0 1 23.501 0.001 Q 31.001 0.001 35.951 3.251 Q 40.901 6.501 43.401 12.001 A 28.185 28.185 0 0 1 45.827 21.864 A 33.434 33.434 0 0 1 45.901 24.101 A 75.204 75.204 0 0 1 45.61 30.797 A 69.426 69.426 0 0 1 45.601 30.901 Z M 142.001 5.401 L 142.001 1.201 L 150.201 1.201 L 150.201 40.601 A 12.15 12.15 0 0 0 150.302 42.236 Q 150.634 44.67 152.051 45.551 Q 153.901 46.701 156.101 46.701 L 154.201 53.701 A 17.722 17.722 0 0 1 149.936 53.228 Q 144.299 51.828 142.704 46.281 A 13.59 13.59 0 0 1 142.601 45.901 A 21.307 21.307 0 0 1 139.491 49.326 A 28.498 28.498 0 0 1 136.351 51.751 Q 132.401 54.401 126.301 54.401 Q 119.801 54.401 114.501 51.101 A 22.947 22.947 0 0 1 107.087 43.574 A 27.923 27.923 0 0 1 106.051 41.751 A 27.228 27.228 0 0 1 103.42 33.808 A 36.644 36.644 0 0 1 102.901 27.501 A 33.142 33.142 0 0 1 103.897 19.232 A 27.968 27.968 0 0 1 106.051 13.501 Q 109.201 7.301 114.751 3.651 A 22.297 22.297 0 0 1 125.945 0.044 A 27.388 27.388 0 0 1 127.501 0.001 A 22.584 22.584 0 0 1 132.294 0.491 A 18.703 18.703 0 0 1 135.651 1.551 A 26.002 26.002 0 0 1 139.937 3.844 A 22.103 22.103 0 0 1 142.001 5.401 Z M 141.201 39.901 L 141.201 12.001 Q 138.501 10.101 135.251 8.951 Q 132.001 7.801 128.401 7.801 A 15.924 15.924 0 0 0 123.429 8.554 A 14.024 14.024 0 0 0 119.951 10.251 A 16.301 16.301 0 0 0 114.931 15.674 A 19.962 19.962 0 0 0 114.201 17.051 A 20.663 20.663 0 0 0 112.447 22.727 A 27.678 27.678 0 0 0 112.101 27.201 Q 112.101 32.801 114.201 37.151 A 17.602 17.602 0 0 0 117.306 41.697 A 15.697 15.697 0 0 0 120.001 43.951 Q 123.701 46.401 128.301 46.401 Q 132.101 46.401 135.501 44.551 Q 138.901 42.701 141.201 39.901 Z M 9.101 23.601 L 37.601 23.601 A 24.355 24.355 0 0 0 37.196 19.015 Q 36.7 16.431 35.596 14.407 A 12.422 12.422 0 0 0 33.801 11.901 A 12.488 12.488 0 0 0 26.84 8.125 A 18.395 18.395 0 0 0 23.301 7.801 A 13.58 13.58 0 0 0 18.189 8.735 A 12.524 12.524 0 0 0 13.701 11.851 Q 9.901 15.901 9.101 23.601 Z" />
</svg>