<svg xmlns="http://www.w3.org/2000/svg" aria-hidden="true" fill="currentColor" width="750" height="137" viewBox="0 0 750 137" >
  <path id="katakana-project" d="M 225.2 51.129 L 225.2 29.929 Q 222.5 30.229 220.15 30.479 A 46.316 46.316 0 0 0 218.199 30.726 Q 217.235 30.87 216.386 31.046 A 26.711 26.711 0 0 0 216 31.129 A 20.905 20.905 0 0 0 214.312 31.478 Q 213.451 31.696 212.724 31.972 A 10.571 10.571 0 0 0 212 32.279 Q 210.747 32.866 208.942 32.993 A 14.815 14.815 0 0 1 207.9 33.029 A 4.15 4.15 0 0 1 206.277 32.678 Q 205.335 32.28 204.35 31.429 Q 202.5 29.829 201.1 27.729 A 20.859 20.859 0 0 1 200.323 26.475 Q 199.575 25.16 199.3 24.129 Q 199.8 22.729 201.1 23.229 Q 202.812 25.104 204.724 25.616 A 5.632 5.632 0 0 0 205.6 25.779 A 19.478 19.478 0 0 0 206.63 25.856 Q 208.5 25.951 211.232 25.796 A 81.765 81.765 0 0 0 212.3 25.729 L 212.9 25.729 Q 214.6 25.629 217.85 25.479 A 2350.589 2350.589 0 0 0 221.084 25.327 Q 222.78 25.246 224.659 25.155 A 3840.184 3840.184 0 0 0 225.2 25.129 L 225.2 13.429 Q 225.2 12.329 225.05 11.179 Q 224.9 10.029 224.1 9.229 A 3.302 3.302 0 0 0 223.235 8.624 Q 222.38 8.196 221.049 7.99 A 13.423 13.423 0 0 0 220.6 7.929 Q 220.2 7.429 220.35 6.829 A 1.987 1.987 0 0 1 220.498 6.421 Q 220.648 6.121 220.892 5.934 A 1.281 1.281 0 0 1 220.9 5.929 Q 222.249 5.839 224.125 6.032 A 32.761 32.761 0 0 1 224.55 6.079 Q 226.7 6.329 228.8 6.779 A 17.7 17.7 0 0 1 230.025 7.084 Q 231.275 7.447 232.1 7.929 A 4.405 4.405 0 0 1 233.099 8.651 A 3.532 3.532 0 0 1 233.9 9.829 Q 234.284 10.751 233.841 11.615 A 2.921 2.921 0 0 1 233.5 12.129 A 5.233 5.233 0 0 0 232.774 13.024 A 3.871 3.871 0 0 0 232.25 14.279 Q 232.082 15.051 231.982 16.117 A 29.2 29.2 0 0 0 231.9 17.229 A 20.025 20.025 0 0 0 231.843 18.079 Q 231.738 20.288 231.89 24.562 A 203.094 203.094 0 0 0 231.9 24.829 Q 236.7 24.629 241.7 24.379 Q 246.7 24.129 251.2 23.929 L 251.2 7.529 Q 251.2 6.429 251.1 5.079 Q 251 3.729 250.3 3.329 A 4.746 4.746 0 0 0 249.876 3.029 Q 249.642 2.88 249.359 2.732 A 10.39 10.39 0 0 0 248.95 2.529 Q 248.161 2.157 247.07 2.044 A 8.589 8.589 0 0 0 246.9 2.029 Q 246.034 0.778 247.113 0.082 A 2.303 2.303 0 0 1 247.2 0.029 A 13.115 13.115 0 0 1 247.87 0.002 Q 249.15 -0.018 250.8 0.179 Q 252.9 0.429 254.9 0.879 Q 256.9 1.329 258.1 2.029 A 4.705 4.705 0 0 1 259.055 2.651 A 3.371 3.371 0 0 1 260 3.929 Q 260.5 5.129 259.5 6.229 A 4.597 4.597 0 0 0 258.838 7.166 A 3.596 3.596 0 0 0 258.45 8.379 Q 258.349 9.151 258.316 10.217 A 35.946 35.946 0 0 0 258.3 11.329 L 258.3 23.629 Q 260.261 23.535 261.829 23.485 A 154.147 154.147 0 0 1 262.05 23.479 Q 263.7 23.429 264.7 23.429 Q 266.085 23.359 267.11 23.17 A 9.545 9.545 0 0 0 267.95 22.979 Q 269.143 22.645 270.928 21.719 A 32.901 32.901 0 0 0 271.1 21.629 A 3.363 3.363 0 0 1 272.56 21.191 Q 273.706 21.107 275.163 21.668 A 11.794 11.794 0 0 1 276.2 22.129 A 14.341 14.341 0 0 1 277.224 22.656 Q 277.783 22.971 278.396 23.37 A 28.951 28.951 0 0 1 279.15 23.879 A 25.52 25.52 0 0 1 280.003 24.498 Q 280.783 25.091 281.261 25.573 A 5.633 5.633 0 0 1 281.5 25.829 Q 282.373 26.774 282.373 27.561 A 1.369 1.369 0 0 1 282.25 28.129 A 1.272 1.272 0 0 1 281.631 28.742 Q 280.973 29.073 279.724 29.033 A 9.186 9.186 0 0 1 279.6 29.029 Q 278.2 28.829 276 28.779 Q 273.8 28.729 271.55 28.629 A 120.642 120.642 0 0 0 269.954 28.568 Q 268.7 28.529 267.7 28.529 A 99.057 99.057 0 0 0 263.735 28.43 A 109.141 109.141 0 0 0 263.15 28.429 L 258.3 28.429 Q 258.209 38.188 256.079 45.701 A 46.019 46.019 0 0 1 255.65 47.129 Q 253.1 55.129 249 60.829 Q 244.9 66.529 240.05 70.429 A 69.537 69.537 0 0 1 234.045 74.772 A 57.146 57.146 0 0 1 230.4 76.929 A 1.919 1.919 0 0 1 229.663 76.575 A 1.874 1.874 0 0 1 229.2 76.029 Q 228.933 75.562 228.933 75.095 A 1.692 1.692 0 0 1 229 74.629 A 49.58 49.58 0 0 0 237.344 67.447 A 58.455 58.455 0 0 0 239.9 64.529 A 44.132 44.132 0 0 0 245.168 56.333 A 57.33 57.33 0 0 0 248 49.629 A 52.455 52.455 0 0 0 250.247 40.632 Q 251.147 35.11 251.2 28.629 A 159.644 159.644 0 0 0 241.901 28.892 A 146.195 146.195 0 0 0 241.3 28.929 Q 238.9 29.029 236.55 29.129 A 95.925 95.925 0 0 0 232.552 29.38 A 87.28 87.28 0 0 0 232 29.429 Q 232.1 33.629 232.25 37.929 Q 232.4 42.229 232.55 45.279 Q 232.69 48.133 232.699 48.929 A 8.863 8.863 0 0 1 232.7 49.029 A 3.176 3.176 0 0 1 232.395 50.345 Q 232.174 50.833 231.793 51.336 A 8.294 8.294 0 0 1 231.05 52.179 A 8.709 8.709 0 0 1 230.191 52.939 Q 229.028 53.829 228 53.829 Q 225.2 53.829 225.2 51.129 Z M 531 58.429 L 531 32.729 A 1463.781 1463.781 0 0 1 525.619 34.172 A 1285.209 1285.209 0 0 1 523.9 34.629 A 111.795 111.795 0 0 0 521.505 35.29 Q 519.637 35.829 518.2 36.329 Q 515.9 37.029 513.7 38.279 A 15.778 15.778 0 0 1 512.247 39.014 Q 510.916 39.597 509.8 39.729 Q 508.998 39.801 508.17 39.529 A 5.211 5.211 0 0 1 507.55 39.279 A 10.676 10.676 0 0 1 505.923 38.307 A 12.661 12.661 0 0 1 505.3 37.829 Q 503.7 36.429 502.5 34.679 A 23.019 23.019 0 0 1 501.758 33.529 Q 501.128 32.482 500.8 31.629 Q 501 31.029 501.5 30.679 A 1.368 1.368 0 0 1 501.759 30.534 Q 502.109 30.389 502.46 30.514 A 1.111 1.111 0 0 1 502.5 30.529 Q 504.5 32.129 506.95 32.529 A 7.626 7.626 0 0 0 507.763 32.615 Q 510.087 32.741 513.8 31.729 Q 516.394 31.013 520.349 30.097 A 312.157 312.157 0 0 1 521.3 29.879 Q 525.9 28.829 531 27.629 L 531 11.429 A 31.628 31.628 0 0 0 530.944 9.572 A 35.818 35.818 0 0 0 530.9 8.929 Q 530.804 7.686 530.16 7.265 A 1.199 1.199 0 0 0 530.1 7.229 A 2.421 2.421 0 0 0 529.801 6.979 Q 529.473 6.742 528.969 6.506 A 8.925 8.925 0 0 0 528.8 6.429 Q 527.9 6.029 526.7 5.929 A 2.651 2.651 0 0 1 526.518 5.581 Q 526.065 4.519 527.1 3.829 A 25.852 25.852 0 0 1 529.19 3.919 Q 530.82 4.052 532.75 4.379 A 31.626 31.626 0 0 1 534.649 4.757 Q 535.622 4.983 536.434 5.251 A 12.79 12.79 0 0 1 537.9 5.829 A 4.859 4.859 0 0 1 538.707 6.297 Q 539.143 6.614 539.413 6.996 A 2.367 2.367 0 0 1 539.75 7.679 A 2.408 2.408 0 0 1 539.857 8.383 Q 539.857 9.194 539.3 10.029 A 12.213 12.213 0 0 0 538.764 11.05 Q 538.515 11.588 538.356 12.093 A 7.162 7.162 0 0 0 538.3 12.279 Q 538.014 13.281 537.727 14.966 A 52.53 52.53 0 0 0 537.7 15.129 A 444.242 444.242 0 0 1 537.644 16.013 Q 537.579 17.012 537.488 18.37 A 1751.129 1751.129 0 0 1 537.4 19.679 Q 537.206 22.534 537.013 26.091 A 671.472 671.472 0 0 0 537 26.329 Q 543.2 24.929 548.65 23.779 Q 552.823 22.898 555.442 22.281 A 109.914 109.914 0 0 0 556.9 21.929 Q 558.048 21.699 558.933 21.469 A 22.102 22.102 0 0 0 559.45 21.329 A 3.689 3.689 0 0 0 560.636 20.731 A 5.197 5.197 0 0 0 561.4 20.029 Q 562.4 18.929 563.1 18.679 Q 563.699 18.465 564.517 18.8 A 4.142 4.142 0 0 1 564.8 18.929 Q 566.3 19.729 568.85 21.479 Q 571.131 23.044 572.572 24.169 A 35.805 35.805 0 0 1 572.9 24.429 A 1.859 1.859 0 0 1 573.255 24.784 Q 573.625 25.283 573.484 25.94 A 2.2 2.2 0 0 1 573.4 26.229 A 2.138 2.138 0 0 1 573.177 26.681 Q 572.766 27.301 572.01 27.23 A 1.778 1.778 0 0 1 572 27.229 A 9.19 9.19 0 0 0 571.241 27.258 Q 570.466 27.322 569.95 27.529 Q 569.349 27.769 568.716 28.33 A 7.257 7.257 0 0 0 568.4 28.629 Q 567.327 29.702 565.733 31.416 A 211.542 211.542 0 0 0 565.35 31.829 A 95.504 95.504 0 0 0 562.112 35.52 A 105.565 105.565 0 0 0 561.65 36.079 Q 559.8 38.329 558.25 40.179 Q 556.7 42.029 556.1 42.829 A 2.917 2.917 0 0 1 555.895 42.849 Q 554.827 42.915 554.507 42.061 A 2.06 2.06 0 0 1 554.4 41.629 Q 554.936 40.557 555.706 38.752 A 127.11 127.11 0 0 0 556.2 37.579 Q 557.3 34.929 558.35 32.279 Q 559.4 29.629 559.8 28.229 A 5.392 5.392 0 0 0 559.868 27.921 Q 560.012 27.16 559.815 26.787 A 0.649 0.649 0 0 0 559.7 26.629 A 0.74 0.74 0 0 0 559.439 26.467 Q 559.007 26.3 558.13 26.399 A 8.013 8.013 0 0 0 557.9 26.429 Q 555.603 26.735 551.636 27.598 A 211.127 211.127 0 0 0 549.05 28.179 Q 543.2 29.529 536.8 31.229 Q 536.6 36.229 536.5 41.379 Q 536.4 46.529 536.4 50.679 Q 536.4 53.856 536.517 55.832 A 31.07 31.07 0 0 0 536.6 56.929 A 13.407 13.407 0 0 0 536.928 59.162 Q 537.207 60.316 537.696 61.2 A 5.396 5.396 0 0 0 539.3 63.029 Q 541.131 64.325 545.581 64.633 A 44.001 44.001 0 0 0 548.6 64.729 Q 553.7 64.729 557.55 63.829 Q 561.33 62.945 563.134 62.447 A 44.196 44.196 0 0 0 563.2 62.429 A 2.866 2.866 0 0 1 564.312 62.201 Q 564.991 62.201 565.7 62.529 A 21.197 21.197 0 0 1 567.063 63.033 Q 567.699 63.294 568.234 63.572 A 10.9 10.9 0 0 1 568.7 63.829 Q 569.9 64.529 570.6 65.329 Q 572.1 66.929 571.3 68.279 A 2.722 2.722 0 0 1 570.454 69.139 Q 569.458 69.808 567.6 70.129 Q 565.264 70.472 562.15 70.745 A 166.221 166.221 0 0 1 559.15 70.979 Q 554.1 71.329 548.6 71.329 A 46.896 46.896 0 0 1 544.638 71.172 Q 540.597 70.829 537.95 69.729 Q 534.326 68.223 532.74 65.521 A 8.317 8.317 0 0 1 532.55 65.179 Q 531 62.229 531 58.429 Z M 6.929 60.88 A 3.916 3.916 0 0 0 8.5 61.229 A 18.962 18.962 0 0 0 9.063 61.22 Q 9.667 61.202 10.2 61.145 A 10.008 10.008 0 0 0 11.25 60.979 Q 12.4 60.729 13.6 60.329 Q 14.3 60.029 15.05 59.829 Q 15.8 59.629 16.7 59.429 A 40.878 40.878 0 0 1 17.052 59.356 Q 19.566 58.85 23.13 58.447 A 142.94 142.94 0 0 1 26.85 58.079 A 270.808 270.808 0 0 1 31.732 57.701 A 325.866 325.866 0 0 1 40.4 57.229 Q 47.8 56.829 55.2 56.829 Q 59.825 56.829 63.63 56.946 A 166.56 166.56 0 0 1 67.9 57.129 A 46.988 46.988 0 0 1 68.948 57.181 Q 70.137 57.253 71.482 57.39 A 88.103 88.103 0 0 1 73.95 57.679 A 104.196 104.196 0 0 1 76.006 57.967 Q 78.123 58.286 79.7 58.629 Q 81.9 59.029 82.4 57.879 A 1.823 1.823 0 0 0 82.556 57.145 Q 82.556 56.322 81.8 55.429 A 5.144 5.144 0 0 0 81.617 55.183 Q 81.122 54.56 80.251 53.81 A 21.818 21.818 0 0 0 79.35 53.079 Q 77.6 51.729 76.4 51.029 Q 75 50.229 73.85 50.229 Q 72.7 50.229 71.6 50.429 A 1.081 1.081 0 0 0 71.507 50.433 Q 71.376 50.444 71.187 50.485 A 5.704 5.704 0 0 0 71 50.529 A 31.077 31.077 0 0 1 70.971 50.536 Q 69.779 50.833 68 51.179 Q 66.2 51.529 64.5 51.429 Q 62.15 51.261 57.687 51.339 A 217.503 217.503 0 0 0 55.9 51.379 Q 50.1 51.529 43.2 51.729 A 104.615 104.615 0 0 1 43.215 50.021 Q 43.247 48.05 43.35 45.679 Q 43.5 42.229 43.75 38.829 Q 43.906 36.704 44.121 34.93 A 53.19 53.19 0 0 1 44.4 32.929 A 24.657 24.657 0 0 1 44.459 32.575 Q 44.844 30.378 45.4 29.729 A 7.933 7.933 0 0 0 45.864 29.126 Q 46.165 28.692 46.354 28.276 A 3.514 3.514 0 0 0 46.65 27.279 Q 46.8 26.129 45.1 25.129 A 22.736 22.736 0 0 0 44.426 24.806 Q 44.065 24.64 43.655 24.465 A 46.933 46.933 0 0 0 42.6 24.029 Q 45.2 23.829 47.85 23.729 Q 50.5 23.629 53.2 23.629 Q 54.925 23.704 57.353 23.722 A 220.094 220.094 0 0 0 59.05 23.729 A 82.995 82.995 0 0 1 59.204 23.729 Q 61.548 23.733 63.293 23.87 A 26.711 26.711 0 0 1 64.8 24.029 A 9.746 9.746 0 0 0 64.979 24.056 Q 67.329 24.387 68.1 23.279 Q 68.9 22.129 67.2 20.429 Q 66.637 19.866 65.899 19.265 A 26.065 26.065 0 0 0 64.95 18.529 A 12.919 12.919 0 0 0 64.163 17.99 A 14.697 14.697 0 0 0 61.9 16.829 A 6.86 6.86 0 0 0 61.591 16.7 A 5.934 5.934 0 0 0 60.1 16.329 A 2.74 2.74 0 0 0 59.797 16.312 Q 59.368 16.312 58.916 16.444 A 4.295 4.295 0 0 0 58.2 16.729 Q 56.9 17.429 55.7 17.929 A 7.635 7.635 0 0 1 55.343 18.067 Q 54.254 18.457 52.8 18.629 Q 50.1 18.829 45.35 19.179 Q 40.6 19.529 35.15 19.979 Q 29.7 20.429 24.9 20.829 A 56.118 56.118 0 0 1 23.966 20.902 Q 20.055 21.176 17.95 20.729 A 7.242 7.242 0 0 1 16.205 20.12 A 7.744 7.744 0 0 1 13.9 18.329 Q 12.6 17.829 12.1 19.229 A 7.97 7.97 0 0 0 12.118 19.291 Q 12.525 20.674 13.65 22.679 Q 14.8 24.729 16.45 26.279 Q 18.1 27.829 19.9 27.829 Q 21.7 27.829 23.7 27.079 A 20.882 20.882 0 0 1 25.273 26.56 A 25.372 25.372 0 0 1 28.1 25.929 A 80.293 80.293 0 0 1 29.56 25.636 A 95.488 95.488 0 0 1 32.15 25.179 A 111.55 111.55 0 0 1 33.518 24.965 A 130.655 130.655 0 0 1 36.7 24.529 A 3.641 3.641 0 0 1 37.298 25.683 A 4.835 4.835 0 0 1 37.5 26.779 Q 37.562 27.622 37.586 28.642 A 56.087 56.087 0 0 1 37.6 29.929 A 9.555 9.555 0 0 1 37.6 29.931 Q 37.6 30.558 37.539 32.399 A 429.948 429.948 0 0 1 37.5 33.529 Q 37.4 36.329 37.3 39.929 Q 37.2 43.529 37.1 46.829 Q 37.025 49.304 37.006 50.991 A 93.879 93.879 0 0 0 37 52.029 Q 30 52.329 23.6 52.729 A 255.955 255.955 0 0 0 20.754 52.922 Q 16.356 53.246 13.6 53.629 A 60.65 60.65 0 0 1 11.98 53.784 Q 8.54 54.064 6.5 53.779 Q 4.859 53.549 3.391 52.393 A 10.204 10.204 0 0 1 1.9 50.929 Q 0.758 50.521 0.215 51.377 A 2.262 2.262 0 0 0 0 51.829 A 7.036 7.036 0 0 0 0.052 52.013 Q 0.339 52.982 0.999 54.246 A 26.052 26.052 0 0 0 1.75 55.579 Q 3.1 57.829 4.95 59.529 A 9.281 9.281 0 0 0 5.765 60.2 Q 6.355 60.629 6.929 60.88 Z M 109.322 72.721 A 1.983 1.983 0 0 0 110.3 73.629 Q 117.5 70.529 125.6 65.579 Q 133.7 60.629 141.45 54.229 Q 149.2 47.829 155.7 40.379 A 88.469 88.469 0 0 0 158.984 36.389 A 74.982 74.982 0 0 0 166.3 25.029 Q 167.7 22.029 169.4 21.429 Q 171.3 20.929 171.55 19.879 Q 171.8 18.829 170.8 17.829 A 92.266 92.266 0 0 0 170.767 17.796 Q 169.866 16.895 168 15.079 A 96.896 96.896 0 0 0 167.153 14.264 Q 165.842 13.018 165 12.329 A 6.279 6.279 0 0 0 164.731 12.102 Q 164.282 11.746 163.915 11.611 A 1.207 1.207 0 0 0 163.5 11.529 A 1.167 1.167 0 0 0 163.196 11.573 Q 162.665 11.716 161.9 12.329 A 6.534 6.534 0 0 1 159.564 13.449 A 9.087 9.087 0 0 1 157.6 13.729 A 87.098 87.098 0 0 0 156.922 13.784 Q 155.702 13.887 153.75 14.079 Q 151.2 14.329 148.3 14.579 A 249.781 249.781 0 0 0 147.578 14.642 A 225.427 225.427 0 0 0 142.7 15.129 A 15.611 15.611 0 0 1 143.091 14.605 A 12.543 12.543 0 0 1 143.7 13.879 A 21.346 21.346 0 0 1 143.751 13.823 Q 144.111 13.429 144.619 12.913 A 63.447 63.447 0 0 1 145 12.529 A 4.276 4.276 0 0 0 145.558 11.851 Q 146.672 10.15 145.305 8.052 A 8.381 8.381 0 0 0 144.6 7.129 Q 143.787 6.129 142.526 5.148 A 21.229 21.229 0 0 0 140.85 3.979 A 61.982 61.982 0 0 0 140.628 3.839 Q 138.327 2.397 136.8 1.729 Q 135.695 1.729 135.462 2.725 A 2.661 2.661 0 0 0 135.4 3.329 A 13.539 13.539 0 0 1 135.575 3.477 Q 137.804 5.399 137.9 7.229 A 5.262 5.262 0 0 1 137.907 7.505 Q 137.907 8.764 137.337 10.43 A 18.879 18.879 0 0 1 136.7 12.029 Q 135.809 14.166 134.425 16.603 A 66.906 66.906 0 0 1 132.3 20.079 A 118.786 118.786 0 0 1 130.809 22.31 A 134.533 134.533 0 0 1 125.85 29.079 Q 122.3 33.629 118.6 37.679 Q 114.9 41.729 111.8 44.529 A 2.473 2.473 0 0 0 111.786 44.65 Q 111.666 45.937 113.1 46.129 Q 116 44.229 119.6 41.079 Q 123.2 37.929 127 34.179 Q 130.8 30.429 134.2 26.579 Q 137.6 22.729 139.9 19.429 A 142.065 142.065 0 0 1 140.619 19.344 Q 142.864 19.086 145.7 18.829 Q 149 18.529 152.25 18.379 A 208.247 208.247 0 0 1 152.327 18.375 Q 155.526 18.229 157.7 18.229 A 6.71 6.71 0 0 1 158.216 18.247 Q 159.283 18.33 159.65 18.779 A 0.717 0.717 0 0 1 159.671 18.806 Q 160.085 19.365 159.5 20.829 A 64.029 64.029 0 0 1 158.748 22.522 A 69.779 69.779 0 0 1 152 34.029 Q 147.4 40.429 141.85 46.129 A 144.016 144.016 0 0 1 141.676 46.306 A 132.342 132.342 0 0 1 130.45 56.579 A 178.072 178.072 0 0 1 126.112 59.993 A 147.001 147.001 0 0 1 119.1 65.029 A 195.895 195.895 0 0 1 116.588 66.692 Q 112.592 69.291 109.3 71.129 A 1.809 1.809 0 0 0 109.225 71.275 Q 109.016 71.732 109.123 72.21 A 1.793 1.793 0 0 0 109.25 72.579 A 2.582 2.582 0 0 0 109.322 72.721 Z M 378.612 62.109 A 6.274 6.274 0 0 0 379.8 62.229 A 4.74 4.74 0 0 0 380.928 62.106 Q 382.9 61.621 382.9 59.229 A 6.171 6.171 0 0 0 382.866 58.581 Q 382.666 56.684 381.3 54.679 Q 379.7 52.329 377.4 51.429 Q 374.65 50.304 371.47 48.69 A 122.417 122.417 0 0 1 367.5 46.579 A 171.506 171.506 0 0 1 365.43 45.412 A 192.689 192.689 0 0 1 356.3 39.829 Q 350.6 36.129 345.55 32.429 Q 342.709 30.347 340.328 28.424 A 94.888 94.888 0 0 1 336.9 25.529 A 14.605 14.605 0 0 0 335.604 24.483 Q 333.415 22.925 331.393 22.925 A 5.22 5.22 0 0 0 331.2 22.929 A 5.314 5.314 0 0 0 329.769 23.132 A 7.115 7.115 0 0 0 328.5 23.629 Q 327.712 24.022 326.893 24.606 A 17.377 17.377 0 0 0 325.6 25.629 Q 324.7 26.429 323.65 27.479 Q 322.6 28.529 321.4 29.629 Q 318.9 32.029 316.15 34.579 A 68.879 68.879 0 0 1 315.384 35.278 Q 314.248 36.3 313.183 37.163 A 39.288 39.288 0 0 1 311.05 38.779 A 16.949 16.949 0 0 1 310.414 39.205 Q 308.492 40.429 307.2 40.429 A 9.841 9.841 0 0 1 306.107 40.369 A 7.941 7.941 0 0 1 303.6 39.679 Q 302 38.929 300.6 37.729 A 1.399 1.399 0 0 0 300.458 37.689 Q 300.128 37.617 299.846 37.737 A 1.093 1.093 0 0 0 299.55 37.929 Q 299.1 38.329 299 38.929 A 14.026 14.026 0 0 0 299.121 39.165 Q 299.658 40.189 300.573 41.554 A 53.972 53.972 0 0 0 301.6 43.029 Q 303.4 45.529 305.1 47.129 A 10.753 10.753 0 0 0 306.148 47.927 Q 307.657 48.929 309 48.929 A 3.628 3.628 0 0 0 310.451 48.611 Q 311.04 48.355 311.639 47.895 A 9.229 9.229 0 0 0 312.7 46.929 A 47.846 47.846 0 0 0 314.028 45.542 Q 314.732 44.778 315.517 43.875 A 113.479 113.479 0 0 0 317.25 41.829 Q 319.9 38.629 322.75 35.229 A 74.129 74.129 0 0 1 323.545 34.295 Q 324.728 32.931 325.848 31.781 A 40.565 40.565 0 0 1 328.1 29.629 A 7.483 7.483 0 0 1 328.398 29.374 Q 330.761 27.461 333.186 28.888 A 6.818 6.818 0 0 1 334.2 29.629 A 380.653 380.653 0 0 0 335.322 30.593 Q 337.302 32.29 340.25 34.779 Q 344.1 38.029 348.85 41.779 Q 353.6 45.529 358.45 49.279 Q 363.3 53.029 367.65 56.029 A 169.92 169.92 0 0 0 367.745 56.094 Q 370.677 58.113 372.946 59.492 A 54.303 54.303 0 0 0 374.9 60.629 Q 376.1 61.329 377.4 61.779 A 10.403 10.403 0 0 0 377.479 61.805 Q 378.066 62.004 378.612 62.109 Z M 442 49.429 L 442 20.329 Q 442 19.129 441.85 18.029 Q 441.7 16.929 440.9 16.129 A 2.307 2.307 0 0 0 440.214 15.572 Q 439.518 15.182 438.348 14.966 A 13.436 13.436 0 0 0 437.4 14.829 A 3.251 3.251 0 0 1 437.201 14.475 Q 436.759 13.55 437.365 12.975 A 1.808 1.808 0 0 1 437.7 12.729 A 13.019 13.019 0 0 1 438.318 12.703 Q 439.366 12.683 440.718 12.805 A 35.406 35.406 0 0 1 441.45 12.879 Q 443.7 13.129 445.8 13.579 A 17.7 17.7 0 0 1 447.025 13.884 Q 448.275 14.247 449.1 14.729 A 4.405 4.405 0 0 1 450.099 15.451 A 3.532 3.532 0 0 1 450.9 16.629 Q 451.284 17.551 450.841 18.415 A 2.921 2.921 0 0 1 450.5 18.929 A 6.257 6.257 0 0 0 449.826 19.717 Q 449.383 20.339 449.2 20.979 Q 448.9 22.029 448.7 23.829 A 16.695 16.695 0 0 0 448.62 24.694 Q 448.52 26.102 448.473 28.745 A 227.984 227.984 0 0 0 448.45 30.479 A 903.122 903.122 0 0 0 448.42 34.554 Q 448.41 36.373 448.405 38.391 A 1754.646 1754.646 0 0 0 448.4 42.629 L 448.4 45.629 L 448.4 48.829 A 4.26 4.26 0 0 0 448.459 49.575 Q 448.823 51.61 451.427 50.455 A 8.833 8.833 0 0 0 451.7 50.329 A 35.44 35.44 0 0 0 454.37 48.836 Q 455.822 47.944 457.405 46.817 A 71.879 71.879 0 0 0 459.35 45.379 A 137.314 137.314 0 0 0 465.537 40.345 A 159.461 159.461 0 0 0 468 38.179 Q 472.4 34.229 476.25 30.329 A 126.068 126.068 0 0 0 478.934 27.53 Q 480.221 26.143 481.289 24.892 A 59.828 59.828 0 0 0 482.5 23.429 A 3.813 3.813 0 0 1 482.788 23.396 Q 484.515 23.27 484.7 25.029 A 43.099 43.099 0 0 1 483.471 26.863 Q 482.153 28.735 480.242 31.13 A 145.592 145.592 0 0 1 479.6 31.929 Q 476.2 36.129 472 40.829 A 180.983 180.983 0 0 1 464.081 49.158 A 165.632 165.632 0 0 1 463.55 49.679 Q 459.3 53.829 455.8 56.429 A 19.233 19.233 0 0 0 454.305 57.704 Q 453.572 58.401 453.023 59.098 A 9.786 9.786 0 0 0 452.5 59.829 Q 450.896 62.234 448.181 60.909 A 7.48 7.48 0 0 1 447.5 60.529 Q 446 59.429 444.35 58.179 A 134.319 134.319 0 0 1 443.19 57.29 Q 442.287 56.591 441.6 56.029 Q 440.7 55.229 440.7 54.529 A 2.623 2.623 0 0 1 440.898 53.544 A 3.373 3.373 0 0 1 441.1 53.129 Q 441.6 52.329 441.8 51.379 Q 442 50.429 442 49.429 Z M 398.9 68.429 Q 398.1 68.329 397.6 67.729 A 1.917 1.917 0 0 1 397.316 67.28 Q 397.183 66.981 397.183 66.659 A 1.629 1.629 0 0 1 397.2 66.429 A 52.525 52.525 0 0 0 402.506 61.104 A 70.533 70.533 0 0 0 407 55.329 Q 411.7 48.629 415.25 40.829 A 75.988 75.988 0 0 0 418.878 31.264 A 62.931 62.931 0 0 0 420.3 25.629 Q 420.824 23.356 420.508 22.382 A 1.43 1.43 0 0 0 420.4 22.129 A 2.04 2.04 0 0 0 419.941 21.586 Q 419.457 21.167 418.599 20.799 A 10.914 10.914 0 0 0 417.9 20.529 Q 417.2 19.229 418.4 18.529 A 23.496 23.496 0 0 1 420.532 18.914 Q 421.624 19.161 422.832 19.524 A 43.292 43.292 0 0 1 423.65 19.779 Q 426.6 20.729 428.4 21.829 Q 429.5 22.429 429.9 23.679 Q 430.3 24.929 429.6 26.029 A 9.715 9.715 0 0 1 428.898 27 A 7.126 7.126 0 0 1 428.1 27.829 A 2.819 2.819 0 0 0 427.625 28.384 Q 427.229 28.976 426.89 29.943 A 13.495 13.495 0 0 0 426.7 30.529 A 60.18 60.18 0 0 1 422.823 40.194 A 72.639 72.639 0 0 1 420.4 44.629 Q 416.2 51.729 410.65 57.929 A 70.507 70.507 0 0 1 402.712 65.556 A 61.139 61.139 0 0 1 398.9 68.429 Z M 370.35 27.729 A 3.484 3.484 0 0 0 370.476 27.766 Q 371.36 28.009 372.2 27.729 A 1.86 1.86 0 0 0 373.059 27.206 Q 373.541 26.705 373.85 25.779 A 4.189 4.189 0 0 0 373.92 25.545 Q 374.226 24.412 373.924 23.032 A 8.636 8.636 0 0 0 373.6 21.929 A 8.069 8.069 0 0 0 372.219 19.456 A 9.774 9.774 0 0 0 370.15 17.579 A 21.304 21.304 0 0 0 368.401 16.5 A 24.76 24.76 0 0 0 364.35 14.729 A 37.712 37.712 0 0 0 362.145 14.055 A 31.15 31.15 0 0 0 358.1 13.229 A 2.583 2.583 0 0 0 358.084 13.235 Q 356.803 13.737 357.3 15.129 A 26.66 26.66 0 0 1 360.337 16.895 A 20.264 20.264 0 0 1 363.85 19.879 Q 366.4 22.629 368.4 25.929 A 9.571 9.571 0 0 0 368.596 26.211 Q 369.151 26.983 369.691 27.381 A 2.275 2.275 0 0 0 370.35 27.729 Z M 381.13 18.034 A 2.65 2.65 0 0 0 382 17.729 Q 382.816 17.357 383.137 16.27 A 4.891 4.891 0 0 0 383.3 15.429 A 4.672 4.672 0 0 0 383.329 14.912 Q 383.329 13.989 382.966 13.04 A 7.425 7.425 0 0 0 382.3 11.729 A 7.874 7.874 0 0 0 380.163 9.437 A 10.486 10.486 0 0 0 377.95 8.229 A 22.532 22.532 0 0 0 376.828 7.807 A 24.802 24.802 0 0 0 371.6 6.629 A 41.255 41.255 0 0 0 370.478 6.512 Q 368.811 6.362 367.244 6.362 A 30.735 30.735 0 0 0 365.2 6.429 A 1.281 1.281 0 0 0 365.192 6.434 Q 364.948 6.621 364.798 6.921 A 1.987 1.987 0 0 0 364.65 7.329 Q 364.5 7.929 364.9 8.429 A 27.942 27.942 0 0 1 368.306 9.61 A 21.174 21.174 0 0 1 372.25 11.779 Q 375.3 13.929 378 16.729 A 9.16 9.16 0 0 0 378.267 16.985 Q 379.404 18.034 380.3 18.079 A 4.376 4.376 0 0 0 380.519 18.084 Q 380.841 18.084 381.13 18.034 Z" />
</svg>
